<?xml version="1.0" encoding="UTF-8"?>
<svg xmlns="http://www.w3.org/2000/svg" xmlns:xlink="http://www.w3.org/1999/xlink" version="1.1" viewBox="0 0 1516 331">
  <defs>
    <style>
      .cls-1 {
        mask: url(#mask);
      }

      .cls-2 {
        mask: url(#mask-2-3);
      }

      .cls-3 {
        fill: #fff;
        fill-rule: evenodd;
      }

      .cls-4 {
        fill: #ffa000;
        font-family: Bookerly-Italic, Bookerly;
        font-size: 290px;
        font-style: italic;
        letter-spacing: 0em;
      }

      .cls-4, .cls-5 {
        isolation: isolate;
      }

      .cls-6 {
        mask: url(#mask-3);
      }

      .cls-7 {
        mask: url(#mask-4);
      }

      .cls-8 {
        mask: url(#mask-1);
      }
    </style>
    <mask id="mask" x="10" y="40.5" width="892.6" height="206.5" maskUnits="userSpaceOnUse">
      <g id="mask-2">
        <polygon id="path-1" class="cls-3" points="10 247 902.6 247 902.6 40.5 10 40.5 10 247"/>
      </g>
    </mask>
    <mask id="mask-1" x="10" y="40.5" width="892.6" height="206.5" maskUnits="userSpaceOnUse">
      <g id="mask-2-2" data-name="mask-2">
        <polygon id="path-1-2" data-name="path-1" class="cls-3" points="10 247 902.6 247 902.6 40.5 10 40.5 10 247"/>
      </g>
    </mask>
    <mask id="mask-2-3" data-name="mask-2" x="10" y="40.5" width="892.6" height="206.5" maskUnits="userSpaceOnUse">
      <g id="mask-2-4" data-name="mask-2">
        <polygon id="path-1-3" data-name="path-1" class="cls-3" points="10 247 902.6 247 902.6 40.5 10 40.5 10 247"/>
      </g>
    </mask>
    <mask id="mask-3" x="10" y="40.5" width="892.6" height="206.5" maskUnits="userSpaceOnUse">
      <g id="mask-2-5" data-name="mask-2">
        <polygon id="path-1-4" data-name="path-1" class="cls-3" points="10 247 902.6 247 902.6 40.5 10 40.5 10 247"/>
      </g>
    </mask>
    <mask id="mask-4" x="10" y="40.5" width="892.6" height="206.5" maskUnits="userSpaceOnUse">
      <g id="mask-2-6" data-name="mask-2">
        <polygon id="path-1-5" data-name="path-1" class="cls-3" points="10 247 902.6 247 902.6 40.5 10 40.5 10 247"/>
      </g>
    </mask>
  </defs>
  <!-- Generator: Adobe Illustrator 28.6.0, SVG Export Plug-In . SVG Version: 1.2.0 Build 709)  -->
  <g>
    <g id="Layer_1">
      <g id="audible-blog-wordle">
        <g id="Logo">
          <g id="blog" class="cls-5">
            <text class="cls-4" transform="translate(921.9 243)"><tspan x="0" y="0">blog</tspan></text>
          </g>
          <g id="Group-13">
            <path id="Fill-1" class="cls-3" d="M168.2,191.3v-94.8h34.2v93.7c0,22.8,20.6,28.6,32.8,28.6,25.9,0,34.4-13.9,34.4-21.8v-100.5h34.2v147.2h-19.9l-13.1-16.4c-9.3,10.2-24.6,19.7-47.3,19.7-32.6,0-55.4-20-55.4-55.7"/>
            <path id="Fill-3" class="cls-3" d="M620.1,218.2c-20.7,0-35.6-9.4-35.1-29.7h0v-41c0-16.3,13.5-28.3,35.4-28.3s31.1,10.7,31.1,28.5v42c0,17.9-15.6,28.5-31.4,28.5h0ZM552.3,40.5v203h19l12.2-16.7c8.9,10.4,24,20.2,46,20.2s54.6-17.3,54.6-55v-46.7c0-37.7-24.9-55-55.8-55s-35.9,9.2-43.3,18.1V40.5h-32.7Z"/>
            <path id="Fill-5" class="cls-3" d="M359,189.7v-42c0-17.9,15.6-28.5,31.1-28.5,22,0,35.4,12,35.4,28.3v41h0c.5,20.3-14.5,29.7-35.1,29.7s-31.4-10.7-31.4-28.5h0ZM425.5,40.5v68c-7.4-8.9-22-18.1-43.3-18.1-30.9,0-55.8,17.3-55.8,55v46.7c0,37.7,25.2,55,54.6,55s37.1-9.8,46-20.2l12.2,16.7h19V40.5h-32.7Z"/>
            <g class="cls-1">
              <polygon id="Fill-7" class="cls-3" points="706.7 243.5 740.6 243.5 740.6 40.5 706.7 40.5 706.7 243.5"/>
            </g>
            <g class="cls-8">
              <polygon id="Fill-9" class="cls-3" points="488.3 243.5 522.2 243.5 522.2 96.5 488.3 96.5 488.3 243.5"/>
            </g>
            <g class="cls-2">
              <path id="Fill-10" class="cls-3" d="M507.1,75.5c10.4,0,18.8-7.8,18.8-17.5s-8.4-17.5-18.8-17.5-18.8,7.8-18.8,17.5,8.4,17.5,18.8,17.5"/>
            </g>
            <g class="cls-6">
              <path id="Fill-11" class="cls-3" d="M801.2,147.1c0-15.3,11.5-25.8,33.6-25.8s33.6,10.5,33.6,25.8v9.3h-67.2v-9.3ZM836,218.7c-23.3,0-34.8-11-34.8-26.3v-12.2h101.4v-33.1c0-34-26.1-54.1-66.6-54.1s-69,21.2-69,54.6v45.3c0,34,27.1,54.1,69,54.1s54-11.5,63.5-31.2l-24.8-14c-8.8,11.3-21,16.9-38.7,16.9h0Z"/>
            </g>
            <g class="cls-7">
              <path id="Fill-12" class="cls-3" d="M111.4,196.5c-.3,2.2-.3,5.1-3.8,9-5.2,6.7-18.2,13.2-33.7,13.2s-28-5.9-28-18.4c0-17.6,31.5-21.5,50.8-22.2h14.7v18.4ZM80.9,93c-33.2,0-54.7,12.2-63.1,30.5l26.7,15.1c11.2-16.2,21.8-17.3,36.3-17.3,20.8,0,30.5,9.1,30.5,23.5v11.5h-28.7c-20.9,0-72.7,6.5-72.7,47.4s24,43.3,53.2,43.3,40.1-9.6,49.4-19.8l13.1,16.4h19.9v-100.8c0-28.9-21.1-49.8-64.7-49.8h0Z"/>
            </g>
          </g>
        </g>
      </g>
    </g>
  </g>
</svg>